<svg width="23" height="22" viewBox="0 0 23 22" fill="none" xmlns="http://www.w3.org/2000/svg">
<path fill-rule="evenodd" clip-rule="evenodd" d="M11.5 5.83192e-06C8.76717 -0.00271872 6.12267 0.949276 4.0404 2.68539C1.95814 4.4215 0.574229 6.82824 0.13667 9.47432C-0.300889 12.1204 0.236507 14.8328 1.65255 17.1255C3.0686 19.4183 5.27074 21.1414 7.86433 21.9862C8.44321 22.09 8.64794 21.7369 8.64794 21.4391C8.64794 21.1413 8.64794 20.4627 8.64794 19.5209C5.43584 20.2065 4.75813 18.0044 4.75813 18.0044C4.54504 17.3219 4.09233 16.7356 3.48035 16.3494C2.4426 15.6569 3.56507 15.6569 3.56507 15.6569C3.92884 15.7073 4.27616 15.8383 4.58071 16.0398C4.88526 16.2414 5.13906 16.5083 5.32289 16.8203C5.47909 17.0981 5.68968 17.3429 5.94258 17.5407C6.19548 17.7385 6.4857 17.8854 6.7966 17.9729C7.1075 18.0604 7.43296 18.0868 7.75429 18.0506C8.07563 18.0144 8.38651 17.9164 8.66912 17.762C8.71342 17.1924 8.96379 16.657 9.37507 16.2524C6.81952 15.9685 4.13689 14.9991 4.13689 10.7126C4.11934 9.59288 4.54146 8.50939 5.31583 7.6865C4.97094 6.7129 5.01125 5.64777 5.42879 4.70193C5.42879 4.70193 6.39594 4.39724 8.59146 5.85836C10.4768 5.35061 12.4667 5.35061 14.3521 5.85836C16.5476 4.39724 17.5077 4.70193 17.5077 4.70193C17.931 5.63776 17.9814 6.69525 17.6489 7.66573C18.4232 8.48862 18.8454 9.5721 18.8278 10.6919C18.8278 15.0268 16.1381 15.9755 13.5755 16.2317C13.8503 16.5026 14.0625 16.8283 14.1977 17.1868C14.3329 17.5452 14.3879 17.928 14.3591 18.3091C14.3591 19.8187 14.3591 21.0375 14.3591 21.4045C14.3591 21.7715 14.5638 22.0554 15.1498 21.9446C17.7138 21.0776 19.883 19.3495 21.274 17.0657C22.6651 14.7819 23.1885 12.0894 22.7518 9.46373C22.3151 6.83808 20.9464 4.44832 18.8875 2.71661C16.8286 0.984908 14.212 0.0227116 11.5 5.83192e-06Z" fill="#3C6FF2"/>
</svg>
