<svg width="24" height="20" viewBox="0 0 24 20" fill="none" xmlns="http://www.w3.org/2000/svg">
<path d="M20.6667 0.25H3.33334C1.53853 0.25 0.0833435 1.70519 0.0833435 3.5V16.5C0.0833435 18.2948 1.53853 19.75 3.33334 19.75H20.6667C22.4615 19.75 23.9167 18.2948 23.9167 16.5V3.5C23.9167 1.70519 22.4615 0.25 20.6667 0.25ZM20.6667 2.41667C20.7918 2.41667 20.9121 2.43779 21.0236 2.47706L12 9.69613L2.97639 2.47706C3.08797 2.43779 3.20822 2.41667 3.33334 2.41667H20.6667ZM20.6667 17.5833H3.33334C2.73507 17.5833 2.25001 17.0983 2.25001 16.5V4.67054L11.3232 11.9291C11.5209 12.0876 11.7603 12.1667 12 12.1667C12.2397 12.1667 12.4791 12.0876 12.6768 11.9291L21.75 4.67054V16.5C21.75 17.0983 21.2649 17.5833 20.6667 17.5833Z" fill="#3C6FF2"/>
</svg>
