<svg width="28" height="16" viewBox="0 0 28 16" fill="none" xmlns="http://www.w3.org/2000/svg">
<path d="M1.75 0.0812988C2.66875 0.0812988 4.06875 0.0812988 4.85625 0.0812988C5.25 0.0812988 5.55625 0.343799 5.6875 0.693799C6.08125 1.8313 6.95625 4.32505 7.9625 6.0313C9.31875 8.26255 10.1937 9.0938 10.7625 9.0063C11.3312 8.87505 11.1562 7.38755 11.1562 6.2063C11.1562 5.02505 11.2875 3.01255 10.7187 2.0938L9.84375 0.825049C9.625 0.518799 9.84375 0.125049 10.1937 0.125049H15.1812C15.6625 0.125049 16.0562 0.518799 16.0562 1.00005V7.3438C16.0562 7.3438 16.275 8.4813 17.5 7.30005C18.725 6.1188 20.0375 3.9313 21.1312 1.70005L21.5687 0.650049C21.7 0.343799 22.0062 0.125049 22.3562 0.125049H25.5937C26.2062 0.125049 26.6437 0.737549 26.425 1.3063L26.075 2.22505C26.075 2.22505 24.8937 4.58755 23.6687 6.25005C22.4437 7.9563 22.1812 8.35005 22.3562 8.78755C22.5312 9.22505 25.6812 12.1563 26.4687 13.5563C26.6875 13.9501 26.8625 14.3 27.0375 14.6063C27.3437 15.175 26.9062 15.9188 26.25 15.9188H22.575C22.2687 15.9188 21.9625 15.7438 21.8312 15.4813L21.4812 14.9126C21.4812 14.9126 19.25 12.2876 17.8937 11.4563C16.4937 10.6688 16.5375 11.8063 16.5375 11.8063V14.125C16.5375 15.0875 15.75 15.875 14.7875 15.875H13.9125C13.9125 15.875 9.1 15.8751 5.25 10.1438C2.23125 5.6813 1.225 2.7938 0.874996 1.1313C0.787496 0.606299 1.18125 0.0812988 1.75 0.0812988Z" fill="#3C6FF2"/>
</svg>
